<svg width="50" height="50" viewBox="0 0 50 50" fill="none" xmlns="http://www.w3.org/2000/svg">
<mask id="path-1-inside-1_27_746" fill="white">
<path d="M8 45C5.79086 45 4 43.2091 4 41L4 28C4 27.4477 4.44771 27 5 27L11 27C11.5523 27 12 27.4477 12 28L12 41C12 43.2091 10.2091 45 8 45Z"/>
</mask>
<path d="M8 45C5.79086 45 4 43.2091 4 41L4 28C4 27.4477 4.44771 27 5 27L11 27C11.5523 27 12 27.4477 12 28L12 41C12 43.2091 10.2091 45 8 45Z" stroke="#152C5B" stroke-width="6" mask="url(#path-1-inside-1_27_746)"/>
<mask id="path-2-inside-2_27_746" fill="white">
<path d="M42 45C39.7909 45 38 43.2091 38 41L38 28C38 27.4477 38.4477 27 39 27L45 27C45.5523 27 46 27.4477 46 28L46 41C46 43.2091 44.2091 45 42 45Z"/>
</mask>
<path d="M42 45C39.7909 45 38 43.2091 38 41L38 28C38 27.4477 38.4477 27 39 27L45 27C45.5523 27 46 27.4477 46 28L46 41C46 43.2091 44.2091 45 42 45Z" stroke="#152C5B" stroke-width="6" mask="url(#path-2-inside-2_27_746)"/>
<path d="M6.64456 22.3525C7.43691 21.1074 7.61505 20.8844 7.81766 20.75L6.98847 19.5L7.81766 20.75C7.88742 20.7037 7.96094 20.6634 8.03744 20.6294C8.25961 20.5306 8.54334 20.5 10.0192 20.5H40.3615C41.8938 20.5 42.1882 20.5327 42.4163 20.6379C42.4948 20.6741 42.5701 20.717 42.6412 20.7662C42.8478 20.9091 43.0257 21.1459 43.8052 22.4651C44.8079 24.162 45.4842 25.312 45.8694 26.201C46.2552 27.0915 46.1961 27.3901 46.1552 27.5047C46.096 27.6703 46.0082 27.8242 45.8958 27.9593C45.8179 28.0529 45.5909 28.2557 44.628 28.3765C43.6666 28.4972 42.3325 28.5 40.3615 28.5H10.0192C7.98194 28.5 6.5983 28.4972 5.60364 28.3725C4.60248 28.247 4.37361 28.0358 4.29881 27.9434C4.18649 27.8045 4.09986 27.6467 4.04302 27.4774C4.00517 27.3647 3.94989 27.0582 4.38152 26.1462C4.81036 25.2401 5.5508 24.0713 6.64456 22.3525Z" stroke="#152C5B" stroke-width="3"/>
<path d="M20 13V20" stroke="#152C5B" stroke-width="3" stroke-linecap="round" stroke-linejoin="round"/>
<path d="M30 13V20" stroke="#152C5B" stroke-width="3" stroke-linecap="round" stroke-linejoin="round"/>
<mask id="path-6-inside-3_27_746" fill="white">
<path d="M20 14C17.7909 14 16 12.2091 16 10L16 5C16 4.44772 16.4477 4 17 4L23 4C23.5523 4 24 4.44771 24 5L24 10C24 12.2091 22.2091 14 20 14Z"/>
</mask>
<path d="M20 14C17.7909 14 16 12.2091 16 10L16 5C16 4.44772 16.4477 4 17 4L23 4C23.5523 4 24 4.44771 24 5L24 10C24 12.2091 22.2091 14 20 14Z" stroke="#30E4C9" stroke-width="6" mask="url(#path-6-inside-3_27_746)"/>
<mask id="path-7-inside-4_27_746" fill="white">
<path d="M30 14C27.7909 14 26 12.2091 26 10L26 5C26 4.44772 26.4477 4 27 4L33 4C33.5523 4 34 4.44771 34 5L34 10C34 12.2091 32.2091 14 30 14Z"/>
</mask>
<path d="M30 14C27.7909 14 26 12.2091 26 10L26 5C26 4.44772 26.4477 4 27 4L33 4C33.5523 4 34 4.44771 34 5L34 10C34 12.2091 32.2091 14 30 14Z" stroke="#30E4C9" stroke-width="6" mask="url(#path-7-inside-4_27_746)"/>
</svg>
