<svg width="50" height="50" viewBox="0 0 50 50" fill="none" xmlns="http://www.w3.org/2000/svg">
<path d="M38.5 42C38.5 42.5592 38.2228 43.2437 37.3976 44.0241C36.5693 44.8075 35.2901 45.5821 33.585 46.2641C30.1833 47.6249 25.3809 48.5 20 48.5C14.6191 48.5 9.81674 47.6249 6.41495 46.2641C4.70989 45.5821 3.43073 44.8075 2.60236 44.0241C1.77716 43.2437 1.5 42.5592 1.5 42C1.5 41.4408 1.77716 40.7563 2.60236 39.9759C3.43073 39.1925 4.70989 38.4179 6.41495 37.7359C9.81674 36.3751 14.6191 35.5 20 35.5C25.3809 35.5 30.1833 36.3751 33.585 37.7359C35.2901 38.4179 36.5693 39.1925 37.3976 39.9759C38.2228 40.7563 38.5 41.4408 38.5 42Z" stroke="#152C5B" stroke-width="3"/>
<path d="M33.5 14.4118C33.5 18.1299 31.8894 25.5768 29.2178 32.1239C27.8874 35.3841 26.3356 38.3151 24.6668 40.4035C22.9569 42.5434 21.3699 43.5 20 43.5C18.6301 43.5 17.0431 42.5434 15.3332 40.4035C13.6644 38.3151 12.1126 35.3841 10.7822 32.1239C8.11059 25.5768 6.5 18.1299 6.5 14.4118C6.5 7.33679 12.487 1.5 20 1.5C27.513 1.5 33.5 7.33679 33.5 14.4118Z" fill="white" stroke="#152C5B" stroke-width="3"/>
<circle cx="20" cy="15" r="4.5" stroke="#30E4C9" stroke-width="3"/>
</svg>
