<svg width="36" height="36" viewBox="0 0 36 36" fill="none" xmlns="http://www.w3.org/2000/svg">
<path d="M17.0446 3.09181C17.335 2.15213 18.665 2.15213 18.9554 3.09181L22.0314 13.046C22.1609 13.465 22.5483 13.7508 22.9869 13.7508H33.0437C34.0002 13.7508 34.4109 14.9648 33.6508 15.5454L25.4297 21.8258C25.0967 22.0802 24.9576 22.5153 25.0813 22.9157L28.2009 33.0108C28.4884 33.941 27.4121 34.6918 26.6384 34.1007L18.6071 27.9653C18.2487 27.6915 17.7513 27.6915 17.3929 27.9653L9.36158 34.1007C8.58789 34.6918 7.51164 33.941 7.79909 33.0108L10.9187 22.9157C11.0424 22.5153 10.9033 22.0802 10.5703 21.8258L2.34923 15.5454C1.58912 14.9648 1.99976 13.7508 2.9563 13.7508H13.0131C13.4517 13.7508 13.8391 13.465 13.9686 13.046L17.0446 3.09181Z" fill="#FFD53F"/>
</svg>
