<svg width="50" height="50" viewBox="0 0 50 50" fill="none" xmlns="http://www.w3.org/2000/svg">
<mask id="path-1-inside-1_9_127" fill="white">
<path fill-rule="evenodd" clip-rule="evenodd" d="M19.4042 12C18.4788 12 17.6743 12.6348 17.4591 13.5349L16.3913 18H6C2.68629 18 0 20.6863 0 24V44.2581C0 47.5718 2.68629 50.2581 6 50.2581H44C47.3137 50.2581 50 47.5718 50 44.2581V24C50 20.6863 47.3137 18 44 18H33.6087L32.5409 13.5349C32.3257 12.6348 31.5212 12 30.5958 12H19.4042Z"/>
</mask>
<path d="M17.4591 13.5349L20.3768 14.2326L20.3768 14.2326L17.4591 13.5349ZM16.3913 18V21H18.7585L19.309 18.6977L16.3913 18ZM33.6087 18L30.691 18.6977L31.2415 21H33.6087V18ZM32.5409 13.5349L35.4587 12.8371V12.8371L32.5409 13.5349ZM20.3768 14.2326C20.2692 14.6826 19.8669 15 19.4042 15V9C17.0907 9 15.0794 10.5871 14.5413 12.8371L20.3768 14.2326ZM19.309 18.6977L20.3768 14.2326L14.5413 12.8371L13.4736 17.3023L19.309 18.6977ZM6 21H16.3913V15H6V21ZM3 24C3 22.3431 4.34315 21 6 21V15C1.02944 15 -3 19.0294 -3 24H3ZM3 44.2581V24H-3V44.2581H3ZM6 47.2581C4.34315 47.2581 3 45.9149 3 44.2581H-3C-3 49.2286 1.02944 53.2581 6 53.2581V47.2581ZM44 47.2581H6V53.2581H44V47.2581ZM47 44.2581C47 45.9149 45.6569 47.2581 44 47.2581V53.2581C48.9706 53.2581 53 49.2286 53 44.2581H47ZM47 24V44.2581H53V24H47ZM44 21C45.6569 21 47 22.3431 47 24H53C53 19.0294 48.9706 15 44 15V21ZM33.6087 21H44V15H33.6087V21ZM29.6232 14.2326L30.691 18.6977L36.5264 17.3023L35.4587 12.8371L29.6232 14.2326ZM30.5958 15C30.1331 15 29.7308 14.6826 29.6232 14.2326L35.4587 12.8371C34.9206 10.5871 32.9093 9 30.5958 9V15ZM19.4042 15H30.5958V9H19.4042V15Z" fill="#152C5B" mask="url(#path-1-inside-1_9_127)"/>
<circle cx="25" cy="34" r="5.5" stroke="#30E4C9" stroke-width="3"/>
<path d="M35 25H42" stroke="#152C5B" stroke-width="3" stroke-linecap="round" stroke-linejoin="round"/>
</svg>
